<svg width="14" height="12" viewBox="0 0 14 12" fill="none" xmlns="http://www.w3.org/2000/svg">
<path d="M13.5 0.5H0.5C0.223437 0.5 0 0.723437 0 1V11C0 11.2766 0.223437 11.5 0.5 11.5H13.5C13.7766 11.5 14 11.2766 14 11V1C14 0.723437 13.7766 0.5 13.5 0.5ZM12.875 10.375H1.125V9.75156L3.28906 7.18437L5.63438 9.96562L9.28281 5.64062L12.875 9.9V10.375ZM12.875 8.34688L9.37813 4.2C9.32812 4.14062 9.2375 4.14062 9.1875 4.2L5.63438 8.4125L3.38438 5.74531C3.33438 5.68594 3.24375 5.68594 3.19375 5.74531L1.125 8.19844V1.625H12.875V8.34688ZM3.75 5.125C3.93057 5.125 4.10937 5.08943 4.27619 5.02033C4.44301 4.95123 4.59459 4.84995 4.72227 4.72227C4.84995 4.59459 4.95123 4.44301 5.02033 4.27619C5.08943 4.10937 5.125 3.93057 5.125 3.75C5.125 3.56943 5.08943 3.39063 5.02033 3.22381C4.95123 3.05699 4.84995 2.90541 4.72227 2.77773C4.59459 2.65005 4.44301 2.54877 4.27619 2.47967C4.10937 2.41057 3.93057 2.375 3.75 2.375C3.38533 2.375 3.03559 2.51987 2.77773 2.77773C2.51987 3.03559 2.375 3.38533 2.375 3.75C2.375 4.11467 2.51987 4.46441 2.77773 4.72227C3.03559 4.98013 3.38533 5.125 3.75 5.125ZM3.75 3.3125C3.99219 3.3125 4.1875 3.50781 4.1875 3.75C4.1875 3.99219 3.99219 4.1875 3.75 4.1875C3.50781 4.1875 3.3125 3.99219 3.3125 3.75C3.3125 3.50781 3.50781 3.3125 3.75 3.3125Z" fill="#FFC53D"/>
</svg>
